#!OML:ASF F:\twosubjects\two\Thursday\Session 1\justin.ASF
:FULLY-SPECIFIED
:DEGREES
331
root 11.9685 18.1302 10.1908 -171.399 -10.3973 -175.697
lowerback -8.80526 1.35016 -4.88625
upperback 0.485165 1.32965 8.51859
thorax 5.15088 0.165867 12.22
lowerneck -21.6056 -4.63584 -12.2107
upperneck 27.655 -5.15273 6.34523
head 13.436 -3.00341 3.57096
rclavicle 5.68524e-014 8.26944e-014
rhumerus -24.6383 -7.36628 -77.0272
rradius 28.6394
rwrist -6.064
rhand -15.4819 10.8689
rfingers 7.12502
rthumb 10.6999 -18.8386
lclavicle 5.68524e-014 8.26944e-014
lhumerus -28.4574 -0.754304 99.8676
lradius 29.7365
lwrist -4.72797
lhand -0.776141 38.4847
lfingers 7.12502
lthumb 24.8468 66.8901
rfemur -15.7486 -1.74548 28.8527
rtibia 33.5575
rfoot -23.9334 -14.4254
rtoes -10.9957
lfemur -2.16627 -1.11427 -7.71489
ltibia 12.5873
lfoot -15.7922 -4.14125
ltoes -16.7417
332
root 11.9684 18.1315 10.1982 -171.391 -10.5686 -175.633
lowerback -8.68664 1.31272 -4.80054
upperback 0.430407 1.25943 8.57163
thorax 5.04295 0.136081 12.2116
lowerneck -21.5568 -4.57212 -12.274
upperneck 27.7286 -5.07087 6.38556
head 13.4502 -2.97596 3.61446
rclavicle -5.92378e-014 -8.26944e-014
rhumerus -24.7196 -7.18994 -77.0282
rradius 28.593
rwrist -6.14212
rhand -14.5638 9.39185
rfingers 7.12502
rthumb 11.5854 -20.2679
lclavicle -5.92378e-014 -8.26944e-014
lhumerus -28.5572 -0.709701 99.9404
lradius 29.819
lwrist -4.3623
lhand -1.94852 38.1191
lfingers 7.12502
lthumb 23.7228 66.675
rfemur -15.7823 -1.7928 28.9164
rtibia 33.453
rfoot -24.2345 -14.2518
rtoes -9.20878
lfemur -2.31714 -1.2005 -7.63257
ltibia 12.7234
lfoot -15.852 -4.13129
ltoes -17.0306
333
root 11.9688 18.136 10.2053 -171.377 -10.5902 -175.643
lowerback -8.61338 1.30512 -4.7431
upperback 0.414929 1.23638 8.60093
thorax 4.9911 0.126642 12.203
lowerneck -21.4417 -4.56628 -12.2321
upperneck 27.6748 -5.03076 6.19243
head 13.3926 -2.98114 3.53629
rclavicle 3.27995e-014 1.59028e-014
rhumerus -24.8098 -6.96961 -77.0257
rradius 28.4563
rwrist -6.05133
rhand -13.2084 9.3821
rfingers 7.12502
rthumb 12.8923 -20.1997
lclavicle 3.27995e-014 1.59028e-014
lhumerus -28.6253 -0.579681 100.016
lradius 29.8532
lwrist -4.14465
lhand -3.57779 37.5999
lfingers 7.12502
lthumb 22.1594 66.3499
rfemur -15.7575 -1.68158 28.8612
rtibia 33.3274
rfoot -24.6001 -13.9809
rtoes -7.73863
lfemur -2.50591 -1.31465 -7.63748
ltibia 13.0405
lfoot -15.9452 -4.11734
ltoes -16.2703
334
root 11.9683 18.1324 10.2159 -171.399 -10.5343 -175.503
lowerback -8.50222 1.39929 -4.52933
upperback 0.363728 1.32577 8.65687
thorax 4.85495 0.179617 12.1383
lowerneck -21.2002 -4.58362 -12.1666
upperneck 27.65 -5.06092 5.98314
head 13.3277 -3.02344 3.4359
rclavicle 6.36111e-015 9.54166e-015
rhumerus -24.9407 -7.01316 -76.9171
rradius 28.2892
rwrist -5.7206
rhand -13.1312 11.5174
rfingers 7.12502
rthumb 12.9667 -18.0597
lclavicle 6.36111e-015 9.54166e-015
lhumerus -28.7738 -0.684871 100.154
lradius 29.8858
lwrist -3.97509
lhand -3.57332 37.202
lfingers 7.12502
lthumb 22.1636 65.9515
rfemur -15.7888 -1.63634 28.9965
rtibia 33.3462
rfoot -24.4119 -13.9939
rtoes -7.95652
lfemur -2.50622 -1.3084 -7.4859
ltibia 13.0127
lfoot -15.9073 -4.17959
ltoes -15.5145
335
root 11.9675 18.1161 10.2303 -171.363 -10.5655 -175.325
lowerback -8.49202 1.47791 -4.34014
upperback 0.358892 1.39187 8.7362
thorax 4.8307 0.210949 12.1206
lowerneck -21.0659 -4.64511 -12.2138
upperneck 27.5371 -5.13551 5.95766
head 13.2627 -3.06201 3.41914
rclavicle -2.18663e-015 -1.43125e-014
rhumerus -24.8852 -7.16222 -76.8346
rradius 28.4474
rwrist -6.03537
rhand -14.8208 12.1542
rfingers 7.12502
rthumb 11.3376 -17.5193
lclavicle -2.18663e-015 -1.43125e-014
lhumerus -28.7821 -0.778855 100.27
lradius 29.9554
lwrist -3.97717
lhand -1.53101 36.9202
lfingers 7.12502
lthumb 24.1231 65.4236
rfemur -15.9819 -1.92431 29.2849
rtibia 33.3418
rfoot -23.4065 -14.6442
rtoes -12.8246
lfemur -2.66358 -1.28635 -7.3017
ltibia 13.0602
lfoot -15.9603 -4.0646
ltoes -16.673
